<?xml version="1.0" standalone="no"?>
<!DOCTYPE svg PUBLIC "-//W3C//DTD SVG 1.1//EN" "http://www.w3.org/Graphics/SVG/1.1/DTD/svg11.dtd" >
<svg xmlns="http://www.w3.org/2000/svg">
<metadata>
This is a custom SVG webfont generated by Font Squirrel.
Copyright   : c 2004 Ray Larabie See attached license agreement for more information If EULA is missing visit wwwlarabiefontscom for an updated version of this font
Foundry     : Ray Larabie
</metadata>
<defs>
<font id="webfont7HEPseRl" horiz-adv-x="2342" >
<font-face units-per-em="2048" ascent="1638" descent="-410" />
<missing-glyph horiz-adv-x="929" />
<glyph unicode=" "  horiz-adv-x="929" />
<glyph unicode="&#x09;" horiz-adv-x="929" />
<glyph unicode="&#xa0;" horiz-adv-x="929" />
<glyph unicode="!" horiz-adv-x="641" d="M147 2v277h385v-277h-385zM532 1583v-1155h-385v1155h385z" />
<glyph unicode="&#x22;" horiz-adv-x="874" d="M725 1114h-201v473h201v-473zM358 1114h-211v473h211v-473z" />
<glyph unicode="#" horiz-adv-x="1320" d="M780 588v252h-243v-252h243zM1208 336h-168v-168h-260v168h-243v-168h-261v168h-167v252h167v252h-167v252h167v168h261v-168h243v168h260v-168h168v-252h-168v-252h168v-252z" />
<glyph unicode="$" horiz-adv-x="2236" d="M1456 612v-237q231 0 268 237h-268zM778 969v241q-240 0 -270 -241h270zM1001 375h238v237h-238v-237zM1001 969h238v241h-238v-241zM1001 -147h-223v147h-637v375h637v237h-637v303q0 623 637 664v150h223v-146h238v146h217v-146h633v-373h-633v-241h641v-301 q0 -633 -641 -666v-149h-217v147h-238v-147z" />
<glyph unicode="%" horiz-adv-x="2256" d="M190 1583h553v-545h-553v545zM1522 543h551v-543h-551v543zM2148 1450l-1880 -1503l-159 198l1882 1502z" />
<glyph unicode="&#x26;" horiz-adv-x="2387" d="M1864 958h387v-958h-1673q-432 0 -433 401q0 180 78 279.5t215 126.5q-293 49 -293 375q0 401 433 401h1017v-366h-915q-127 0 -127 -121q0 -137 127 -138h913v-335h-913q-127 0 -127 -136q0 -121 127 -120h1184v591z" />
<glyph unicode="'" horiz-adv-x="505" d="M346 1114h-199v473h199v-473z" />
<glyph unicode="(" horiz-adv-x="1118" d="M866 1755l213 -182l-622 -703q-74 -88 -118 -171t-44 -171q0 -70 38 -142.5t96 -144t127 -140.5l132 -132l-194 -200l-261 282q-117 119 -166 241t-49 245q0 129 58.5 260t163.5 250z" />
<glyph unicode=")" horiz-adv-x="1118" d="M233 -231l-213 182l623 702q78 86 119 170t41 172q0 70 -27.5 135.5t-89.5 131.5l-274 292l194 201l260 -282q117 -123 166 -242t49 -244q0 -127 -60 -261t-161 -249z" />
<glyph unicode="*" horiz-adv-x="1351" d="M1272 590l-131 -219l-334 200v-319h-262v319l-336 -200l-129 219l348 207l-348 209l129 217l336 -199v319h262v-319l334 199l131 -217l-348 -209z" />
<glyph unicode="+" horiz-adv-x="1009" d="M969 672h-336v-336h-260v336h-336v252h336v336h260v-336h336v-252z" />
<glyph unicode="," horiz-adv-x="507" d="M295 -213h-189v492h322z" />
<glyph unicode="-" horiz-adv-x="1226" d="M1079 672h-932v252h932v-252z" />
<glyph unicode="." horiz-adv-x="626" d="M469 0h-315v279h315v-279z" />
<glyph unicode="/" horiz-adv-x="1665" d="M1655 1477l-1479 -1502l-166 170l1479 1502z" />
<glyph unicode="0" horiz-adv-x="2301" d="M1350 612h-369v357h369v-357zM1784 1210h-854q-119 0 -199 -20.5t-127 -69.5t-67.5 -130t-20.5 -204v-411h854q117 0 196 19.5t128 67.5t69.5 129t20.5 204v415zM2171 1583v-797q0 -184 -53.5 -330.5t-154.5 -248t-248.5 -154.5t-336.5 -53h-1247v795q0 180 53.5 326.5 t154.5 249t247.5 157.5t335.5 55h1249z" />
<glyph unicode="1" horiz-adv-x="964" d="M457 0v850q0 360 -320 360h-98v373h108q352 0 524.5 -175t172.5 -550v-858h-387z" />
<glyph unicode="2" horiz-adv-x="2174" d="M2060 0h-1956v969h1594q-37 242 -268 241h-1326v373h1244q721 0 720 -668v-303h-1597v-237h1589v-375z" />
<glyph unicode="3" horiz-adv-x="2226" d="M2095 1583v-797q0 -184 -52 -330.5t-153.5 -248t-249 -154.5t-337.5 -53h-1160v375h1153q176 0 267.5 56t126.5 181h-895v357h915v241h-938q-238 0 -270 -241h-369q27 614 721 614h1241z" />
<glyph unicode="4" horiz-adv-x="2211" d="M506 1583v-614h1192v614h364v-1583h-364v612h-1579v971h387z" />
<glyph unicode="5" horiz-adv-x="2138" d="M1999 1210h-1487v-241h1495v-301q0 -668 -723 -668h-1137v375h1219q231 0 268 237h-1487v971h1852v-373z" />
<glyph unicode="6" horiz-adv-x="2125" d="M1354 375q231 0 268 237h-1122v-237h854zM1985 1210h-1211q-242 0 -272 -241h1493v-301q0 -668 -723 -668h-1137v915q0 668 721 668h1129v-373z" />
<glyph unicode="7" horiz-adv-x="2230" d="M375 0l952 1096q27 33 129 123q-55 -4 -109.5 -6.5t-105.5 -2.5h-496q-238 0 -270 -241h-371q27 614 723 614h1379l-1346 -1583h-485z" />
<glyph unicode="8" horiz-adv-x="2312" d="M657 1212q-129 0 -129 -116q0 -137 129 -138h1000q127 0 127 138q0 117 -127 116h-1000zM657 623q-129 0 -129 -136q0 -121 129 -120h1000q127 0 127 120q0 135 -127 136h-1000zM555 0q-434 0 -434 401q0 180 71.5 279.5t202.5 126.5q-135 25 -204.5 117t-69.5 258 q0 401 434 401h1204q432 0 432 -401q0 -166 -70.5 -258.5t-201.5 -116.5q129 -27 200.5 -126t71.5 -280q0 -401 -432 -401h-1204z" />
<glyph unicode="9" horiz-adv-x="2193" d="M1692 969v241h-920q-233 0 -270 -241h1190zM141 375h1276q123 0 188.5 60.5t82.5 176.5h-1555v303q0 668 721 668h1202v-915q0 -668 -721 -668h-1194v375z" />
<glyph unicode=":" horiz-adv-x="636" d="M469 0h-315v279h315v-279zM473 612h-315v281h315v-281z" />
<glyph unicode=";" horiz-adv-x="589" d="M461 612h-314v281h314v-281zM334 -213h-189v492h320z" />
<glyph unicode="&#x3c;" horiz-adv-x="1609" d="M1085 1008h359v-420h-359v-320l-935 516l935 529v-305z" />
<glyph unicode="=" horiz-adv-x="1226" d="M1079 881h-932v252h932v-252zM1079 461h-932v252h932v-252z" />
<glyph unicode="&#x3e;" horiz-adv-x="1609" d="M506 1313l936 -529l-936 -516v320h-359v420h359v305z" />
<glyph unicode="?" horiz-adv-x="1986" d="M1903 645h-752v-217h-387v526h762v256h-824q-252 0 -272 -241h-362q49 614 696 614h1139v-938zM764 2v277h387v-277h-387z" />
<glyph unicode="@" horiz-adv-x="1978" d="M1079 768h-161v-160h161v160zM1841 1583v-1472h-758v264h-415v342q0 311 315 311h358v-653h187v868h-766q-299 0 -299 -305v-938h-326v909q0 674 615 674h1089z" />
<glyph unicode="A" d="M1806 1210h-696q-172 0 -278.5 -18t-166 -51t-85 -79t-37.5 -101h1263v249zM2193 0h-387v612h-1288v-612h-385v795q0 184 52.5 330.5t153.5 248t248.5 155.5t336.5 54h1269v-1583z" />
<glyph unicode="B" horiz-adv-x="2387" d="M532 367h1184q129 0 129 120q0 135 -129 136h-913v335h913q129 0 129 138q0 117 -129 116h-1184v-845zM147 1583h1672q434 0 434 -401q0 -166 -69.5 -258.5t-205.5 -116.5q131 -27 203 -126t72 -280q0 -401 -434 -401h-1672v1583z" />
<glyph unicode="C" horiz-adv-x="2207" d="M2107 0h-1976v795q0 184 52.5 330.5t153.5 248t248.5 155.5t336.5 54h1185v-373h-1177q-414 0 -414 -424v-411h1591v-375z" />
<glyph unicode="D" horiz-adv-x="2277" d="M1759 1210h-1612v373h1997v-797q0 -184 -52 -330.5t-153.5 -248t-249 -154.5t-335.5 -53h-1207v969h385v-594h814q414 0 413 420v415z" />
<glyph unicode="E" horiz-adv-x="2222" d="M2140 0h-2009v795q0 180 54.5 326.5t156.5 249t248.5 157.5t331.5 55h1218v-373h-1210q-176 0 -267.5 -62.5t-125.5 -178.5h1357v-357h-1378v-237h1624v-375z" />
<glyph unicode="F" horiz-adv-x="2091" d="M1937 612h-1421v-612h-385v795q0 180 53.5 326.5t154.5 249t247.5 157.5t335.5 55h1142v-373h-1134q-176 0 -267.5 -62.5t-125.5 -178.5h1400v-357z" />
<glyph unicode="G" horiz-adv-x="2338" d="M2202 1583v-373h-1272q-121 0 -201 -20.5t-127 -69.5t-66.5 -132t-19.5 -208v-405h887q90 0 154.5 13t108.5 43t71.5 75t44.5 106h-242v357h672q-16 -289 -69.5 -476.5t-150 -297t-240.5 -152.5t-343 -43h-1276v795q0 184 52.5 330.5t153.5 248t247.5 155.5t337.5 54 h1278z" />
<glyph unicode="H" horiz-adv-x="2293" d="M2144 0h-385v610h-1227v-610h-385v1583h385v-614h1227v614h385v-1583z" />
<glyph unicode="I" horiz-adv-x="686" d="M532 0h-385v1583h385v-1583z" />
<glyph unicode="J" horiz-adv-x="2199" d="M1378 1583h672v-1583h-1216q-162 0 -297.5 46t-235.5 127t-163.5 193.5t-82.5 245.5h398q80 -238 389 -237h823v835h-287v373z" />
<glyph unicode="K" horiz-adv-x="2308" d="M532 0h-385v1583h385v-614h601l538 614h481l-565 -631q283 -53 436.5 -247.5t153.5 -522.5v-182h-387v193q0 420 -414 419h-844v-612z" />
<glyph unicode="L" horiz-adv-x="2185" d="M532 1583v-1208h824q307 0 387 237h399q-51 -303 -255 -457.5t-523 -154.5h-1217v1583h385z" />
<glyph unicode="M" horiz-adv-x="2979" d="M1118 1053h387v-1053h-387v1053zM135 1583h1538q236 0 396.5 -98.5t263.5 -302.5l587 -1182h-426l-550 1051q-86 160 -320 159h-1106v-1210h-383v1583z" />
<glyph unicode="N" horiz-adv-x="2443" d="M2292 0h-408q-330 449 -641 733.5t-622 401.5l-50 18l-55 21q6 -86 6 -111v-1063h-375v1583h332q190 -61 372.5 -158.5t355.5 -221.5t335 -271.5t309 -306.5l70 -76q-6 70 -6 104v930h377v-1583z" />
<glyph unicode="O" horiz-adv-x="2373" d="M1847 1210h-917q-119 0 -199 -20.5t-127 -69.5t-67.5 -130t-20.5 -204v-411h918q117 0 195.5 19.5t126.5 67.5t69.5 129t21.5 204v415zM2232 1583v-797q0 -184 -52 -330.5t-153.5 -248t-249 -154.5t-335.5 -53h-1311v795q0 180 53.5 326.5t154.5 249t247.5 157.5 t335.5 55h1310z" />
<glyph unicode="P" d="M147 0v1583h2104v-303q0 -668 -723 -668h-817v357h899q117 0 183.5 62.5t84.5 178.5h-1346v-1210h-385z" />
<glyph unicode="Q" horiz-adv-x="2267" d="M1765 1210h-854q-121 0 -200.5 -20.5t-126.5 -69.5t-66.5 -130t-19.5 -204v-411h610v192h387v-192q72 12 123 40.5t84 78t48 123t15 178.5v415zM1495 -215h-387v215h-997v795q0 180 54 326.5t156.5 249t249 157.5t332.5 55h1247v-797q0 -164 -48 -301t-134 -238.5 t-207 -164t-266 -76.5v-221z" />
<glyph unicode="R" horiz-adv-x="2381" d="M711 969h899q117 0 183.5 62.5t84.5 178.5h-1346v-1210h-385v1583h2104v-303q0 -600 -584 -662l602 -618h-467l-610 612h-481v357z" />
<glyph unicode="S" horiz-adv-x="2207" d="M2066 1210h-1294q-242 0 -272 -241h1575v-301q0 -668 -721 -668h-1221v375h1303q231 0 268 237h-1571v303q0 668 721 668h1212v-373z" />
<glyph unicode="T" horiz-adv-x="2140" d="M2073 1210h-727v-1210h-385v1210h-267q-252 0 -272 -241h-363q49 614 697 614h1317v-373z" />
<glyph unicode="U" horiz-adv-x="2273" d="M2144 1583v-745q0 -205 -61.5 -362t-176 -262t-276.5 -159.5t-362 -54.5h-1121v1583h385v-1208h635q592 0 592 436v772h385z" />
<glyph unicode="V" horiz-adv-x="2287" d="M2243 1583l-1100 -1720l-1098 1720h455l553 -930q27 -43 49 -87t39 -89q18 45 41.5 88t50.5 86l555 932h455z" />
<glyph unicode="W" horiz-adv-x="2783" d="M1180 1583h385v-1016h-385v1016zM147 1583h383v-1208h1328q408 0 407 413v795h383v-858q0 -160 -57.5 -294t-162 -229.5t-249.5 -148.5t-321 -53h-1711v1583z" />
<glyph unicode="X" horiz-adv-x="2424" d="M2384 0h-541l-624 584l-654 -584h-532l788 682l135 102l-141 109l-788 690h546l627 -579l641 579h543l-776 -672l-148 -110l160 -123z" />
<glyph unicode="Y" horiz-adv-x="2361" d="M2228 1583v-797q0 -184 -52 -330.5t-153.5 -248t-249 -154.5t-335.5 -53h-1291v375h1283q178 0 268 59.5t123 175.5h-1674v973h385v-614h1311v614h385z" />
<glyph unicode="Z" horiz-adv-x="2332" d="M2163 1583l-1194 -1218h604q236 0 268 247h369q-29 -612 -719 -612h-1378l1210 1221h-1030v362h1870z" />
<glyph unicode="[" horiz-adv-x="937" d="M809 1853v-270h-102q-86 0 -142.5 -15.5t-91.5 -51t-49 -94t-14 -146.5v-969q0 -90 14 -148.5t49 -94t91.5 -50t142.5 -14.5h102v-270h-109q-135 0 -240.5 40t-179 114.5t-112.5 180t-39 236.5v981q0 131 39 236.5t112.5 180.5t179 114.5t240.5 39.5h109z" />
<glyph unicode="\" horiz-adv-x="1665" d="M174 1647l1477 -1502l-164 -170l-1479 1502z" />
<glyph unicode="]" horiz-adv-x="935" d="M233 1853q133 0 240 -39.5t180.5 -114.5t113.5 -180.5t40 -236.5v-981q0 -131 -40 -236.5t-113.5 -180t-180 -114.5t-240.5 -40h-108v270h102q86 0 142.5 14.5t91.5 50t49 94t14 148.5v969q0 88 -14 146.5t-49 94t-91.5 51t-142.5 15.5h-102v270h108z" />
<glyph unicode="^" horiz-adv-x="2287" d="M868 590h-428l703 1098l702 -1098h-428l-182 309l-48 84q-24 43 -40 92q-20 -45 -44 -89l-48 -85z" />
<glyph unicode="_" horiz-adv-x="1628" d="M1628 -375h-1628v242h1628v-242z" />
<glyph unicode="`" horiz-adv-x="808" d="M106 1970l635 -188v-66h-635v254z" />
<glyph unicode="a" d="M518 961h1264q-14 96 -111 174q-94 76 -457 75h-696v-249zM133 1583h1270q186 0 333.5 -54t249 -155.5t154.5 -248t53 -330.5v-795h-387v604h-1288v-604h-385v1583z" />
<glyph unicode="b" horiz-adv-x="2387" d="M532 367h1184q129 0 129 120q0 135 -129 136h-913v335h913q129 0 129 138q0 117 -129 116h-1184v-845zM1819 1583q434 0 434 -401q0 -326 -295 -375q141 -27 218 -126t77 -280q0 -401 -434 -401h-1672v1583h1672z" />
<glyph unicode="c" horiz-adv-x="2220" d="M2107 1210h-1591v-417q0 -418 414 -418h1177v-375h-1185q-188 0 -336 53t-249 154.5t-153.5 248t-52.5 330.5v797h1976v-373z" />
<glyph unicode="d" horiz-adv-x="2277" d="M1759 786q0 424 -413 424h-1199v373h1207q188 0 335.5 -54t249 -155.5t153.5 -248t52 -330.5v-795h-1997v969h385v-594h1227v411z" />
<glyph unicode="e" horiz-adv-x="2222" d="M2140 1210h-1624v-241h1378v-357h-1357q35 -115 126 -176t267 -61h1210v-375h-1218q-184 0 -331 55.5t-249 156.5t-156.5 246.5t-54.5 327.5v797h2009v-373z" />
<glyph unicode="f" horiz-adv-x="2091" d="M1937 612h-1421v-612h-385v795q0 180 53.5 326.5t154.5 249t247.5 157.5t335.5 55h1142v-373h-1134q-176 0 -267.5 -62.5t-125.5 -178.5h1400v-357z" />
<glyph unicode="g" horiz-adv-x="2338" d="M2202 1583v-373h-1272q-121 0 -201 -20.5t-127 -69.5t-66.5 -132t-19.5 -208v-405h1311v237h-287v357h672v-969h-2079v795q0 184 52.5 330.5t153.5 248t247.5 155.5t337.5 54h1278z" />
<glyph unicode="h" horiz-adv-x="2293" d="M2144 0h-385v612h-1227v-612h-385v1583h385v-614h1227v614h385v-1583z" />
<glyph unicode="i" horiz-adv-x="686" d="M147 0v1106h385v-1106h-385zM532 1270h-385v313h385v-313z" />
<glyph unicode="j" horiz-adv-x="2199" d="M1378 1583h672v-1583h-1216q-160 0 -294 45t-234.5 126t-165 193.5t-85.5 247.5h398q80 -238 389 -237h823v835h-287v373z" />
<glyph unicode="k" horiz-adv-x="2308" d="M532 0h-385v1583h385v-614h601l538 614h481l-565 -631q283 -53 436.5 -247.5t153.5 -522.5v-182h-387v193q0 420 -414 419h-844v-612z" />
<glyph unicode="l" horiz-adv-x="2070" d="M532 1583v-1208h1448v-375h-1833v1583h385z" />
<glyph unicode="m" horiz-adv-x="2664" d="M1106 1016h387v-1016h-387v1016zM135 1583h1587q176 0 322.5 -53t251 -149.5t162 -229.5t57.5 -293v-858h-385v793q0 418 -408 417h-1204v-1210h-383v1583z" />
<glyph unicode="n" horiz-adv-x="2443" d="M2292 0h-408q-330 449 -641 733.5t-622 401.5l-50 18l-55 21q6 -86 6 -111v-1063h-375v1583h332q190 -61 372.5 -158.5t355.5 -221.5t335 -271.5t309 -306.5l70 -76q-6 70 -6 104v930h377v-1583z" />
<glyph unicode="o" horiz-adv-x="2373" d="M1847 1210h-917q-119 0 -199 -20.5t-127 -69.5t-67.5 -130t-20.5 -204v-411h918q117 0 195.5 19.5t126.5 67.5t69.5 129t21.5 204v415zM2232 1583v-797q0 -184 -52 -330.5t-153.5 -248t-249 -154.5t-335.5 -53h-1311v795q0 180 53.5 326.5t154.5 249t247.5 157.5 t335.5 55h1310z" />
<glyph unicode="p" d="M147 0v1583h2104v-303q0 -668 -723 -668h-817v357h899q117 0 183.5 62.5t84.5 178.5h-1346v-1210h-385z" />
<glyph unicode="q" horiz-adv-x="2267" d="M1765 1210h-854q-121 0 -200.5 -20.5t-126.5 -69.5t-66.5 -130t-19.5 -204v-411h610v192h387v-192q72 12 123 40.5t84 78t48 123t15 178.5v415zM1495 -215h-387v215h-997v795q0 180 54 326.5t156.5 249t249 157.5t332.5 55h1247v-797q0 -164 -48 -301t-134 -238.5 t-207 -164t-266 -76.5v-221z" />
<glyph unicode="r" horiz-adv-x="2381" d="M711 969h899q117 0 183.5 62.5t84.5 178.5h-1346v-1210h-385v1583h2104v-303q0 -600 -584 -662l602 -618h-467l-610 612h-481v357z" />
<glyph unicode="s" horiz-adv-x="2207" d="M2066 1210h-1294q-242 0 -272 -241h1575v-301q0 -668 -721 -668h-1221v375h1303q231 0 268 237h-1571v303q0 668 721 668h1212v-373z" />
<glyph unicode="t" horiz-adv-x="1861" d="M1815 1210h-691v-1210h-383v1210h-694v373h1768v-373z" />
<glyph unicode="u" horiz-adv-x="2273" d="M532 1583v-772q0 -436 592 -436h635v1208h385v-1583h-1120q-201 0 -362.5 54.5t-276.5 159.5t-176.5 262t-61.5 362v745h385z" />
<glyph unicode="v" horiz-adv-x="2287" d="M2243 1583l-1100 -1720l-1098 1720h455l553 -930q27 -43 49 -87t39 -89q18 45 41.5 88t50.5 86l555 932h455z" />
<glyph unicode="w" horiz-adv-x="2783" d="M1616 567h-385v1016h385v-1016zM2648 0h-1710q-176 0 -321.5 53t-250 148.5t-162 229.5t-57.5 294v858h383v-795q0 -414 408 -413h1327v1208h383v-1583z" />
<glyph unicode="x" horiz-adv-x="2424" d="M2384 0h-541l-624 584l-654 -584h-532l788 682l135 102l-141 109l-788 690h546l627 -579l641 579h543l-776 -672l-148 -110l160 -123z" />
<glyph unicode="y" horiz-adv-x="2361" d="M2228 1583v-797q0 -184 -52 -330.5t-153.5 -248t-249 -154.5t-335.5 -53h-1291v375h1283q178 0 268 59.5t123 175.5h-1674v973h385v-614h1311v614h385z" />
<glyph unicode="z" horiz-adv-x="2271" d="M2134 1583l-1192 -1218h1161v-365h-2017l1208 1221h-1028v362h1868z" />
<glyph unicode="|" horiz-adv-x="483" d="M348 -188h-201v1960h201v-1960z" />
<glyph unicode="&#xa1;" horiz-adv-x="641" d="M532 1581v-278h-385v278h385zM147 0v1102h385v-1102h-385z" />
<glyph unicode="&#xa3;" horiz-adv-x="2080" d="M104 969h150q20 145 82.5 259.5t163 193.5t234.5 120t298 41h920v-373h-912q-311 0 -387 -241h885v-213h-911v-381h1325v-375h-1839v375h129v381h-138v213z" />
<glyph unicode="&#xa5;" horiz-adv-x="2140" d="M1792 612h-526v-260h526v-174h-526v-178h-387v178h-537v174h537v260h-537v176h389l-672 795h482l532 -680l531 680h483l-674 -795h379v-176z" />
<glyph unicode="&#xa8;" horiz-adv-x="808" d="M727 1716h-235v209h235v-209zM301 1716h-235v209h235v-209z" />
<glyph unicode="&#xa9;" horiz-adv-x="1751" d="M88 784q0 164 62.5 310.5t171 256t254 173t311.5 63.5t311 -63.5t254 -173t172.5 -256t63.5 -310.5q0 -166 -63.5 -311t-172.5 -253.5t-254 -171t-311 -62.5t-311.5 62.5t-254 171t-171 253.5t-62.5 311zM182 782q0 -147 55.5 -276t151.5 -225.5t225 -151.5t275 -55 q147 0 277 55t227.5 151.5t153 225.5t55.5 276q0 145 -55.5 275.5t-153 227.5t-227.5 154.5t-277 57.5q-145 0 -274.5 -57.5t-225.5 -154.5t-151.5 -227.5t-55.5 -275.5zM1198 477h-692v322q0 154 84 237.5t237 83.5h371v-151h-367q-168 0 -167 -172v-168h534v-152z" />
<glyph unicode="&#xaa;" d="M518 961h1264q-14 96 -111 174q-94 76 -457 75h-696v-249zM133 1583h1270q186 0 333.5 -54t249 -155.5t154.5 -248t53 -330.5v-795h-387v604h-1288v-604h-385v1583z" />
<glyph unicode="&#xab;" horiz-adv-x="1724" d="M1532 266h-287l-467 518l467 527h287l-490 -518zM881 266h-287l-465 518l465 527h287l-488 -518z" />
<glyph unicode="&#xad;" horiz-adv-x="1226" d="M1079 672h-932v252h932v-252z" />
<glyph unicode="&#xae;" horiz-adv-x="1374" d="M651 1499q-113 0 -202 -41t-151 -107.5t-96 -149.5t-34 -169q0 -88 34 -172t96 -149.5t151.5 -105.5t201.5 -40q104 0 197.5 36t164 98.5t111.5 147.5t41 185q0 86 -39 169t-107.5 149.5t-162.5 107.5t-205 41zM655 457q-131 0 -240.5 47t-189.5 127t-124 183.5 t-44 217.5q0 119 44 224.5t124 184.5t189.5 125t240.5 46q129 0 241 -45t192.5 -123t127 -183.5t46.5 -228.5q0 -115 -47.5 -218t-129 -183t-192.5 -127t-238 -47zM588 1210v-141h98q68 0 68 68q0 74 -68 73h-98zM651 940h-63v-229h-119v624h215q88 0 138 -50t50 -148 q0 -61 -22.5 -101.5t-77.5 -77.5l109 -247h-125z" />
<glyph unicode="&#xb2;" horiz-adv-x="2174" d="M2060 0h-1956v969h1594q-37 242 -268 241h-1326v373h1244q721 0 720 -668v-303h-1597v-237h1589v-375z" />
<glyph unicode="&#xb3;" horiz-adv-x="2226" d="M2095 1583v-797q0 -184 -52 -330.5t-153.5 -248t-249 -154.5t-337.5 -53h-1160v375h1153q176 0 267.5 56t126.5 181h-895v357h915v241h-938q-238 0 -270 -241h-369q27 614 721 614h1241z" />
<glyph unicode="&#xb4;" horiz-adv-x="808" d="M741 1716h-635v66l635 188v-254z" />
<glyph unicode="&#xb6;" horiz-adv-x="1933" d="M1083 768h-170v-160h170v160zM1815 1583v-702q0 -770 -728 -770v264h-415v342q0 311 311 311h354v-573q76 16 115 93t39 236v459h-729q-303 0 -303 -305v-938h-318v909q0 674 611 674h1063z" />
<glyph unicode="&#xb7;" horiz-adv-x="565" d="M446 657h-315v279h315v-279z" />
<glyph unicode="&#xb8;" horiz-adv-x="1128" d="M897 -186l-332 -189l-332 189v65h664v-65z" />
<glyph unicode="&#xb9;" horiz-adv-x="964" d="M457 0v850q0 360 -320 360h-98v373h108q352 0 524.5 -175t172.5 -550v-858h-387z" />
<glyph unicode="&#xba;" horiz-adv-x="2373" d="M1847 1210h-917q-119 0 -199 -20.5t-127 -69.5t-67.5 -130t-20.5 -204v-411h918q117 0 195.5 19.5t126.5 67.5t69.5 129t21.5 204v415zM2232 1583v-797q0 -184 -52 -330.5t-153.5 -248t-249 -154.5t-335.5 -53h-1311v795q0 180 53.5 326.5t154.5 249t247.5 157.5 t335.5 55h1310z" />
<glyph unicode="&#xbb;" horiz-adv-x="1724" d="M1266 793l-490 518h289l465 -527l-465 -518h-289zM614 793l-489 518h289l465 -527l-465 -518h-289z" />
<glyph unicode="&#xbf;" horiz-adv-x="1986" d="M66 938h753v217h385v-528h-762v-256h824q252 0 272 241h363q-49 -612 -697 -612h-1138v938zM1204 1581v-278h-385v278h385z" />
<glyph unicode="&#xc0;" d="M1806 1210h-696q-172 0 -278.5 -18t-166 -51t-85 -79t-37.5 -101h1263v249zM2193 0h-387v612h-1288v-612h-385v795q0 184 52.5 330.5t153.5 248t248.5 155.5t336.5 54h1269v-1583zM995 1970l635 -188v-66h-635v254z" />
<glyph unicode="&#xc1;" d="M1806 1210h-696q-172 0 -278.5 -18t-166 -51t-85 -79t-37.5 -101h1263v249zM2193 0h-387v612h-1288v-612h-385v795q0 184 52.5 330.5t153.5 248t248.5 155.5t336.5 54h1269v-1583zM1699 1716h-635v66l635 188v-254z" />
<glyph unicode="&#xc2;" d="M1806 1210h-696q-172 0 -278.5 -18t-166 -51t-85 -79t-37.5 -101h1263v249zM2193 0h-387v612h-1288v-612h-385v795q0 184 52.5 330.5t153.5 248t248.5 155.5t336.5 54h1269v-1583zM1057 1782l331 188l332 -188v-66h-663v66z" />
<glyph unicode="&#xc3;" d="M1806 1210h-696q-172 0 -278.5 -18t-166 -51t-85 -79t-37.5 -101h1263v249zM2193 0h-387v612h-1288v-612h-385v795q0 184 52.5 330.5t153.5 248t248.5 155.5t336.5 54h1269v-1583zM1055 1858h663v-142h-663v142z" />
<glyph unicode="&#xc4;" d="M1806 1210h-696q-172 0 -278.5 -18t-166 -51t-85 -79t-37.5 -101h1263v249zM2193 0h-387v612h-1288v-612h-385v795q0 184 52.5 330.5t153.5 248t248.5 155.5t336.5 54h1269v-1583zM1722 1716h-235v209h235v-209zM1296 1716h-235v209h235v-209z" />
<glyph unicode="&#xc5;" d="M1806 1210h-696q-172 0 -278.5 -18t-166 -51t-85 -79t-37.5 -101h1263v249zM2193 0h-387v612h-1288v-612h-385v795q0 184 52.5 330.5t153.5 248t248.5 155.5t336.5 54h1269v-1583zM1513 1964h-178q-47 0 -63.5 -16.5t-16.5 -65.5v-80h179q47 0 63 17.5t16 64.5v80z M1649 2083v-203q0 -94 -51.5 -145.5t-149.5 -51.5h-328v201q0 92 51.5 145.5t145.5 53.5h332z" />
<glyph unicode="&#xc6;" horiz-adv-x="3962" d="M1806 612h-1288v-612h-385v795q0 184 52.5 330.5t153.5 248t248.5 155.5t336.5 54h2900v-373h-1631v-241h1377v-357h-1377v-237h1631v-375h-2018v612zM1806 1210h-696q-172 0 -277.5 -18t-166 -50t-86 -77t-37.5 -96h1263v241z" />
<glyph unicode="&#xc7;" horiz-adv-x="2158" d="M2107 0h-1976v795q0 184 52.5 330.5t153.5 248t248.5 155.5t336.5 54h1185v-373h-1177q-414 0 -414 -424v-411h1591v-375zM1579 -186l-332 -189l-332 189v65h664v-65z" />
<glyph unicode="&#xc8;" horiz-adv-x="2222" d="M2140 0h-2009v795q0 180 54.5 326.5t156.5 249t248.5 157.5t331.5 55h1218v-373h-1210q-176 0 -267.5 -62.5t-125.5 -178.5h1357v-357h-1378v-237h1624v-375zM878 1970l635 -188v-66h-635v254z" />
<glyph unicode="&#xc9;" horiz-adv-x="2222" d="M2140 0h-2009v795q0 180 54.5 326.5t156.5 249t248.5 157.5t331.5 55h1218v-373h-1210q-176 0 -267.5 -62.5t-125.5 -178.5h1357v-357h-1378v-237h1624v-375zM1505 1716h-635v66l635 188v-254z" />
<glyph unicode="&#xca;" horiz-adv-x="2222" d="M2140 0h-2009v795q0 180 54.5 326.5t156.5 249t248.5 157.5t331.5 55h1218v-373h-1210q-176 0 -267.5 -62.5t-125.5 -178.5h1357v-357h-1378v-237h1624v-375zM881 1782l331 188l332 -188v-66h-663v66z" />
<glyph unicode="&#xcb;" horiz-adv-x="2222" d="M2140 0h-2009v795q0 180 54.5 326.5t156.5 249t248.5 157.5t331.5 55h1218v-373h-1210q-176 0 -267.5 -62.5t-125.5 -178.5h1357v-357h-1378v-237h1624v-375zM1534 1716h-235v209h235v-209zM1108 1716h-235v209h235v-209z" />
<glyph unicode="&#xcc;" horiz-adv-x="686" d="M532 0h-385v1583h385v-1583zM32 1970l635 -188v-66h-635v254z" />
<glyph unicode="&#xcd;" horiz-adv-x="686" d="M532 0h-385v1583h385v-1583zM667 1716h-635v66l635 188v-254z" />
<glyph unicode="&#xce;" horiz-adv-x="686" d="M532 0h-385v1583h385v-1583zM19 1782l331 188l332 -188v-66h-663v66z" />
<glyph unicode="&#xcf;" horiz-adv-x="686" d="M532 0h-385v1583h385v-1583zM680 1716h-235v209h235v-209zM254 1716h-235v209h235v-209z" />
<glyph unicode="&#xd0;" horiz-adv-x="2277" d="M39 969h754v-357h-261v-237h814q414 0 413 420v415h-1612v373h1997v-797q0 -184 -52 -330.5t-153.5 -248t-249 -154.5t-335.5 -53h-1207v612h-108v357z" />
<glyph unicode="&#xd1;" horiz-adv-x="2443" d="M2292 0h-408q-330 449 -641 733.5t-622 401.5l-50 18l-55 21q6 -86 6 -111v-1063h-375v1583h332q190 -61 372.5 -158.5t355.5 -221.5t335 -271.5t309 -306.5l70 -76q-6 70 -6 104v930h377v-1583zM891 1858h663v-142h-663v142z" />
<glyph unicode="&#xd2;" horiz-adv-x="2373" d="M1847 1210h-917q-119 0 -199 -20.5t-127 -69.5t-67.5 -130t-20.5 -204v-411h918q117 0 195.5 19.5t126.5 67.5t69.5 129t21.5 204v415zM2232 1583v-797q0 -184 -52 -330.5t-153.5 -248t-249 -154.5t-335.5 -53h-1311v795q0 180 53.5 326.5t154.5 249t247.5 157.5 t335.5 55h1310zM983 1970l635 -188v-66h-635v254z" />
<glyph unicode="&#xd3;" horiz-adv-x="2373" d="M1847 1210h-917q-119 0 -199 -20.5t-127 -69.5t-67.5 -130t-20.5 -204v-411h918q117 0 195.5 19.5t126.5 67.5t69.5 129t21.5 204v415zM2232 1583v-797q0 -184 -52 -330.5t-153.5 -248t-249 -154.5t-335.5 -53h-1311v795q0 180 53.5 326.5t154.5 249t247.5 157.5 t335.5 55h1310zM1607 1716h-635v66l635 188v-254z" />
<glyph unicode="&#xd4;" horiz-adv-x="2373" d="M1847 1210h-917q-119 0 -199 -20.5t-127 -69.5t-67.5 -130t-20.5 -204v-411h918q117 0 195.5 19.5t126.5 67.5t69.5 129t21.5 204v415zM2232 1583v-797q0 -184 -52 -330.5t-153.5 -248t-249 -154.5t-335.5 -53h-1311v795q0 180 53.5 326.5t154.5 249t247.5 157.5 t335.5 55h1310zM934 1782l331 188l332 -188v-66h-663v66z" />
<glyph unicode="&#xd5;" horiz-adv-x="2373" d="M1847 1210h-917q-119 0 -199 -20.5t-127 -69.5t-67.5 -130t-20.5 -204v-411h918q117 0 195.5 19.5t126.5 67.5t69.5 129t21.5 204v415zM2232 1583v-797q0 -184 -52 -330.5t-153.5 -248t-249 -154.5t-335.5 -53h-1311v795q0 180 53.5 326.5t154.5 249t247.5 157.5 t335.5 55h1310zM955 1858h663v-142h-663v142z" />
<glyph unicode="&#xd6;" horiz-adv-x="2373" d="M1847 1210h-917q-119 0 -199 -20.5t-127 -69.5t-67.5 -130t-20.5 -204v-411h918q117 0 195.5 19.5t126.5 67.5t69.5 129t21.5 204v415zM2232 1583v-797q0 -184 -52 -330.5t-153.5 -248t-249 -154.5t-335.5 -53h-1311v795q0 180 53.5 326.5t154.5 249t247.5 157.5 t335.5 55h1310zM1634 1716h-235v209h235v-209zM1208 1716h-235v209h235v-209z" />
<glyph unicode="&#xd8;" horiz-adv-x="2373" d="M2531 1292l-299 -135v-371q0 -184 -52 -330.5t-153.5 -248t-249 -154.5t-335.5 -53h-1311v197l-190 -86l-129 188l319 143v353q0 180 53.5 326.5t154.5 249t247.5 157.5t335.5 55h1310v-180l168 76zM1434 375q115 0 193.5 19.5t127.5 67.5t70.5 129t21.5 204v186 l-1327 -606h914zM1810 1210h-880q-119 0 -199 -20.5t-127 -69.5t-67.5 -130t-20.5 -204v-168z" />
<glyph unicode="&#xd9;" horiz-adv-x="2273" d="M2144 1583v-745q0 -205 -61.5 -362t-176 -262t-276.5 -159.5t-362 -54.5h-1121v1583h385v-1208h635q592 0 592 436v772h385zM817 1970l635 -188v-66h-635v254z" />
<glyph unicode="&#xda;" horiz-adv-x="2273" d="M2144 1583v-745q0 -205 -61.5 -362t-176 -262t-276.5 -159.5t-362 -54.5h-1121v1583h385v-1208h635q592 0 592 436v772h385zM1452 1716h-635v66l635 188v-254z" />
<glyph unicode="&#xdb;" horiz-adv-x="2273" d="M2144 1583v-745q0 -205 -61.5 -362t-176 -262t-276.5 -159.5t-362 -54.5h-1121v1583h385v-1208h635q592 0 592 436v772h385zM805 1782l331 188l332 -188v-66h-663v66z" />
<glyph unicode="&#xdc;" horiz-adv-x="2273" d="M2144 1583v-745q0 -205 -61.5 -362t-176 -262t-276.5 -159.5t-362 -54.5h-1121v1583h385v-1208h635q592 0 592 436v772h385zM1468 1716h-235v209h235v-209zM1042 1716h-235v209h235v-209z" />
<glyph unicode="&#xdd;" horiz-adv-x="2361" d="M2228 1583v-797q0 -184 -52 -330.5t-153.5 -248t-249 -154.5t-335.5 -53h-1291v375h1283q178 0 268 59.5t123 175.5h-1674v973h385v-614h1311v614h385zM1497 1716h-635v66l635 188v-254z" />
<glyph unicode="&#xde;" horiz-adv-x="2287" d="M147 0v1583h385v-336h1655v-303q0 -668 -723 -668h-753v357h835q119 0 184.5 62.5t84.5 178.5h-1283v-874h-385z" />
<glyph unicode="&#xdf;" horiz-adv-x="4415" d="M2066 1210h-1294q-242 0 -272 -241h1575v-301q0 -668 -721 -668h-1221v375h1303q231 0 268 237h-1571v303q0 668 721 668h1212v-373zM4274 1210h-1294q-242 0 -272 -241h1575v-301q0 -668 -721 -668h-1221v375h1303q231 0 268 237h-1571v303q0 668 721 668h1212v-373z " />
<glyph unicode="&#xe0;" d="M518 961h1264q-14 96 -111 174q-94 76 -457 75h-696v-249zM133 1583h1270q186 0 333.5 -54t249 -155.5t154.5 -248t53 -330.5v-795h-387v604h-1288v-604h-385v1583zM645 1970l635 -188v-66h-635v254z" />
<glyph unicode="&#xe1;" d="M518 961h1264q-14 96 -111 174q-94 76 -457 75h-696v-249zM133 1583h1270q186 0 333.5 -54t249 -155.5t154.5 -248t53 -330.5v-795h-387v604h-1288v-604h-385v1583zM1296 1716h-635v66l635 188v-254z" />
<glyph unicode="&#xe2;" d="M518 961h1264q-14 96 -111 174q-94 76 -457 75h-696v-249zM133 1583h1270q186 0 333.5 -54t249 -155.5t154.5 -248t53 -330.5v-795h-387v604h-1288v-604h-385v1583zM691 1782l331 188l332 -188v-66h-663v66z" />
<glyph unicode="&#xe3;" d="M518 961h1264q-14 96 -111 174q-94 76 -457 75h-696v-249zM133 1583h1270q186 0 333.5 -54t249 -155.5t154.5 -248t53 -330.5v-795h-387v604h-1288v-604h-385v1583zM670 1858h663v-142h-663v142z" />
<glyph unicode="&#xe4;" d="M518 961h1264q-14 96 -111 174q-94 76 -457 75h-696v-249zM133 1583h1270q186 0 333.5 -54t249 -155.5t154.5 -248t53 -330.5v-795h-387v604h-1288v-604h-385v1583zM1321 1716h-235v209h235v-209zM895 1716h-235v209h235v-209z" />
<glyph unicode="&#xe5;" d="M518 961h1264q-14 96 -111 174q-94 76 -457 75h-696v-249zM133 1583h1270q186 0 333.5 -54t249 -155.5t154.5 -248t53 -330.5v-795h-387v604h-1288v-604h-385v1583zM1146 1964h-178q-47 0 -63.5 -16.5t-16.5 -65.5v-80h179q47 0 63 17.5t16 64.5v80zM1282 2083v-203 q0 -94 -51.5 -145.5t-149.5 -51.5h-328v201q0 92 51.5 145.5t145.5 53.5h332z" />
<glyph unicode="&#xe6;" horiz-adv-x="3962" d="M1806 612h-1288v-612h-385v795q0 184 52.5 330.5t153.5 248t248.5 155.5t336.5 54h2900v-373h-1631v-241h1377v-357h-1377v-237h1631v-375h-2018v612zM1806 1210h-696q-172 0 -277.5 -18t-166 -50t-86 -77t-37.5 -96h1263v241z" />
<glyph unicode="&#xe7;" horiz-adv-x="2158" d="M2107 1210h-1591v-417q0 -418 414 -418h1177v-375h-1185q-188 0 -336 53t-249 154.5t-153.5 248t-52.5 330.5v797h1976v-373zM1579 -186l-332 -189l-332 189v65h664v-65z" />
<glyph unicode="&#xe8;" horiz-adv-x="2222" d="M2140 1210h-1624v-241h1378v-357h-1357q35 -115 126 -176t267 -61h1210v-375h-1218q-184 0 -331 55.5t-249 156.5t-156.5 246.5t-54.5 327.5v797h2009v-373zM792 1970l635 -188v-66h-635v254z" />
<glyph unicode="&#xe9;" horiz-adv-x="2222" d="M2140 1210h-1624v-241h1378v-357h-1357q35 -115 126 -176t267 -61h1210v-375h-1218q-184 0 -331 55.5t-249 156.5t-156.5 246.5t-54.5 327.5v797h2009v-373zM1427 1716h-635v66l635 188v-254z" />
<glyph unicode="&#xea;" horiz-adv-x="2222" d="M2140 1210h-1624v-241h1378v-357h-1357q35 -115 126 -176t267 -61h1210v-375h-1218q-184 0 -331 55.5t-249 156.5t-156.5 246.5t-54.5 327.5v797h2009v-373zM779 1782l331 188l332 -188v-66h-663v66z" />
<glyph unicode="&#xeb;" horiz-adv-x="2222" d="M2140 1210h-1624v-241h1378v-357h-1357q35 -115 126 -176t267 -61h1210v-375h-1218q-184 0 -331 55.5t-249 156.5t-156.5 246.5t-54.5 327.5v797h2009v-373zM1442 1716h-235v209h235v-209zM1016 1716h-235v209h235v-209z" />
<glyph unicode="&#xec;" horiz-adv-x="686" d="M532 0h-385v1583h385v-1583zM32 1970l635 -188v-66h-635v254z" />
<glyph unicode="&#xed;" horiz-adv-x="686" d="M532 0h-385v1583h385v-1583zM667 1716h-635v66l635 188v-254z" />
<glyph unicode="&#xee;" horiz-adv-x="686" d="M532 0h-385v1583h385v-1583zM19 1782l331 188l332 -188v-66h-663v66z" />
<glyph unicode="&#xef;" horiz-adv-x="686" d="M532 0h-385v1583h385v-1583zM680 1716h-235v209h235v-209zM254 1716h-235v209h235v-209z" />
<glyph unicode="&#xf0;" horiz-adv-x="2277" d="M39 969h754v-357h-261v-237h814q414 0 413 420v415h-1612v373h1997v-797q0 -184 -52 -330.5t-153.5 -248t-249 -154.5t-335.5 -53h-1207v612h-108v357z" />
<glyph unicode="&#xf1;" horiz-adv-x="2443" d="M2292 0h-408q-330 449 -641 733.5t-622 401.5l-50 18l-55 21q6 -86 6 -111v-1063h-375v1583h332q190 -61 372.5 -158.5t355.5 -221.5t335 -271.5t309 -306.5l70 -76q-6 70 -6 104v930h377v-1583zM891 1858h663v-142h-663v142z" />
<glyph unicode="&#xf2;" horiz-adv-x="2373" d="M1847 1210h-917q-119 0 -199 -20.5t-127 -69.5t-67.5 -130t-20.5 -204v-411h918q117 0 195.5 19.5t126.5 67.5t69.5 129t21.5 204v415zM2232 1583v-797q0 -184 -52 -330.5t-153.5 -248t-249 -154.5t-335.5 -53h-1311v795q0 180 53.5 326.5t154.5 249t247.5 157.5 t335.5 55h1310zM1026 1970l635 -188v-66h-635v254z" />
<glyph unicode="&#xf3;" horiz-adv-x="2373" d="M1847 1210h-917q-119 0 -199 -20.5t-127 -69.5t-67.5 -130t-20.5 -204v-411h918q117 0 195.5 19.5t126.5 67.5t69.5 129t21.5 204v415zM2232 1583v-797q0 -184 -52 -330.5t-153.5 -248t-249 -154.5t-335.5 -53h-1311v795q0 180 53.5 326.5t154.5 249t247.5 157.5 t335.5 55h1310zM1671 1716h-635v66l635 188v-254z" />
<glyph unicode="&#xf4;" horiz-adv-x="2373" d="M1847 1210h-917q-119 0 -199 -20.5t-127 -69.5t-67.5 -130t-20.5 -204v-411h918q117 0 195.5 19.5t126.5 67.5t69.5 129t21.5 204v415zM2232 1583v-797q0 -184 -52 -330.5t-153.5 -248t-249 -154.5t-335.5 -53h-1311v795q0 180 53.5 326.5t154.5 249t247.5 157.5 t335.5 55h1310zM1031 1782l331 188l332 -188v-66h-663v66z" />
<glyph unicode="&#xf5;" horiz-adv-x="2373" d="M1847 1210h-917q-119 0 -199 -20.5t-127 -69.5t-67.5 -130t-20.5 -204v-411h918q117 0 195.5 19.5t126.5 67.5t69.5 129t21.5 204v415zM2232 1583v-797q0 -184 -52 -330.5t-153.5 -248t-249 -154.5t-335.5 -53h-1311v795q0 180 53.5 326.5t154.5 249t247.5 157.5 t335.5 55h1310zM1004 1858h663v-142h-663v142z" />
<glyph unicode="&#xf6;" horiz-adv-x="2373" d="M1847 1210h-917q-119 0 -199 -20.5t-127 -69.5t-67.5 -130t-20.5 -204v-411h918q117 0 195.5 19.5t126.5 67.5t69.5 129t21.5 204v415zM2232 1583v-797q0 -184 -52 -330.5t-153.5 -248t-249 -154.5t-335.5 -53h-1311v795q0 180 53.5 326.5t154.5 249t247.5 157.5 t335.5 55h1310zM1690 1716h-235v209h235v-209zM1264 1716h-235v209h235v-209z" />
<glyph unicode="&#xf8;" horiz-adv-x="2373" d="M2531 1292l-299 -135v-371q0 -184 -52 -330.5t-153.5 -248t-249 -154.5t-335.5 -53h-1311v197l-190 -86l-129 188l319 143v353q0 180 53.5 326.5t154.5 249t247.5 157.5t335.5 55h1310v-180l168 76zM1434 375q115 0 193.5 19.5t127.5 67.5t70.5 129t21.5 204v186 l-1327 -606h914zM1810 1210h-880q-119 0 -199 -20.5t-127 -69.5t-67.5 -130t-20.5 -204v-168z" />
<glyph unicode="&#xf9;" horiz-adv-x="2273" d="M532 1583v-772q0 -436 592 -436h635v1208h385v-1583h-1120q-201 0 -362.5 54.5t-276.5 159.5t-176.5 262t-61.5 362v745h385zM817 1970l635 -188v-66h-635v254z" />
<glyph unicode="&#xfa;" horiz-adv-x="2273" d="M532 1583v-772q0 -436 592 -436h635v1208h385v-1583h-1120q-201 0 -362.5 54.5t-276.5 159.5t-176.5 262t-61.5 362v745h385zM1452 1716h-635v66l635 188v-254z" />
<glyph unicode="&#xfb;" horiz-adv-x="2273" d="M532 1583v-772q0 -436 592 -436h635v1208h385v-1583h-1120q-201 0 -362.5 54.5t-276.5 159.5t-176.5 262t-61.5 362v745h385zM805 1782l331 188l332 -188v-66h-663v66z" />
<glyph unicode="&#xfc;" horiz-adv-x="2273" d="M532 1583v-772q0 -436 592 -436h635v1208h385v-1583h-1120q-201 0 -362.5 54.5t-276.5 159.5t-176.5 262t-61.5 362v745h385zM1468 1716h-235v209h235v-209zM1042 1716h-235v209h235v-209z" />
<glyph unicode="&#xfd;" horiz-adv-x="2361" d="M2228 1583v-797q0 -184 -52 -330.5t-153.5 -248t-249 -154.5t-335.5 -53h-1291v375h1283q178 0 268 59.5t123 175.5h-1674v973h385v-614h1311v614h385zM1497 1716h-635v66l635 188v-254z" />
<glyph unicode="&#xfe;" horiz-adv-x="2287" d="M147 0v1583h385v-336h1655v-303q0 -668 -723 -668h-753v357h835q119 0 184.5 62.5t84.5 178.5h-1283v-874h-385z" />
<glyph unicode="&#xff;" horiz-adv-x="2361" d="M2228 1583v-797q0 -184 -52 -330.5t-153.5 -248t-249 -154.5t-335.5 -53h-1291v375h1283q178 0 268 59.5t123 175.5h-1674v973h385v-614h1311v614h385zM1511 1716h-235v209h235v-209zM1085 1716h-235v209h235v-209z" />
<glyph unicode="&#x152;" horiz-adv-x="3995" d="M3860 0h-3729v795q0 180 53.5 326.5t154.5 249t247.5 157.5t335.5 55h2938v-373h-1626v-241h1381v-357h-1381v-237h1626v-375zM1847 1210h-917q-119 0 -199 -20.5t-127 -69.5t-67.5 -130t-20.5 -204v-411h1331v835z" />
<glyph unicode="&#x153;" horiz-adv-x="3995" d="M3860 0h-3729v795q0 180 53.5 326.5t154.5 249t247.5 157.5t335.5 55h2938v-373h-1626v-241h1381v-357h-1381v-237h1626v-375zM1847 1210h-917q-119 0 -199 -20.5t-127 -69.5t-67.5 -130t-20.5 -204v-411h1331v835z" />
<glyph unicode="&#x178;" horiz-adv-x="2361" d="M2228 1583v-797q0 -184 -52 -330.5t-153.5 -248t-249 -154.5t-335.5 -53h-1291v375h1283q178 0 268 59.5t123 175.5h-1674v973h385v-614h1311v614h385zM1511 1716h-235v209h235v-209zM1085 1716h-235v209h235v-209z" />
<glyph unicode="&#x2c6;" horiz-adv-x="808" d="M66 1782l331 188l332 -188v-66h-663v66z" />
<glyph unicode="&#x2da;" horiz-adv-x="808" d="M530 1964h-178q-47 0 -63.5 -16.5t-16.5 -65.5v-80h179q47 0 63 17.5t16 64.5v80zM666 2083v-203q0 -94 -51.5 -145.5t-149.5 -51.5h-328v201q0 92 51.5 145.5t145.5 53.5h332z" />
<glyph unicode="&#x2dc;" horiz-adv-x="808" d="M66 1858h663v-142h-663v142z" />
<glyph unicode="&#x2000;" horiz-adv-x="1040" />
<glyph unicode="&#x2001;" horiz-adv-x="2082" />
<glyph unicode="&#x2002;" horiz-adv-x="1040" />
<glyph unicode="&#x2003;" horiz-adv-x="2082" />
<glyph unicode="&#x2004;" horiz-adv-x="694" />
<glyph unicode="&#x2005;" horiz-adv-x="520" />
<glyph unicode="&#x2006;" horiz-adv-x="346" />
<glyph unicode="&#x2007;" horiz-adv-x="346" />
<glyph unicode="&#x2008;" horiz-adv-x="260" />
<glyph unicode="&#x2009;" horiz-adv-x="415" />
<glyph unicode="&#x200a;" horiz-adv-x="114" />
<glyph unicode="&#x2010;" horiz-adv-x="1226" d="M1079 672h-932v252h932v-252z" />
<glyph unicode="&#x2011;" horiz-adv-x="1226" d="M1079 672h-932v252h932v-252z" />
<glyph unicode="&#x2012;" horiz-adv-x="1226" d="M1079 672h-932v252h932v-252z" />
<glyph unicode="&#x2013;" horiz-adv-x="1579" d="M1464 672h-1317v252h1317v-252z" />
<glyph unicode="&#x2014;" horiz-adv-x="2541" d="M2384 672h-2237v252h2237v-252z" />
<glyph unicode="&#x2018;" horiz-adv-x="507" d="M238 1583h188v-491h-322z" />
<glyph unicode="&#x2019;" horiz-adv-x="507" d="M295 1092h-189v491h322z" />
<glyph unicode="&#x201a;" horiz-adv-x="507" d="M295 -213h-189v492h322z" />
<glyph unicode="&#x201c;" horiz-adv-x="901" d="M240 1583h188v-491h-322zM627 1583h190v-491h-321z" />
<glyph unicode="&#x201d;" horiz-adv-x="901" d="M684 1092h-188v491h321zM295 1092h-189v491h322z" />
<glyph unicode="&#x201e;" horiz-adv-x="901" d="M684 -213h-188v492h321zM295 -213h-189v492h322z" />
<glyph unicode="&#x2022;" horiz-adv-x="1351" d="M807 571h-262l-117 226l117 227h262l117 -227z" />
<glyph unicode="&#x2026;" horiz-adv-x="3147" d="M2863 0h-315v279h315v-279zM1741 0h-315v279h315v-279zM588 0h-315v279h315v-279z" />
<glyph unicode="&#x202f;" horiz-adv-x="415" />
<glyph unicode="&#x2039;" horiz-adv-x="1091" d="M881 266h-287l-465 518l465 527h287l-488 -518z" />
<glyph unicode="&#x203a;" horiz-adv-x="1091" d="M614 793l-489 518h289l465 -527l-465 -518h-289z" />
<glyph unicode="&#x205f;" horiz-adv-x="520" />
<glyph unicode="&#x20ac;" horiz-adv-x="2238" d="M82 766h115v102h-158l43 154h115v561h1955l-217 -373h-1351v-188h1241l-92 -154h-1149v-102h1091l-90 -154h-977q78 -238 389 -237h1119v-375h-1127q-336 0 -533.5 157.5t-246.5 454.5h-170z" />
<glyph unicode="&#x2122;" horiz-adv-x="1177" d="M362 1468v-469h-122v469h-150v115h418v-115h-146zM940 1321l-125 -324l-139 336v-332h-115v582h139l113 -301l109 301h135v-582h-117v320z" />
<glyph unicode="&#xe000;" horiz-adv-x="1585" d="M0 1585h1585v-1585h-1585v1585z" />
<glyph unicode="&#xfb01;" horiz-adv-x="2777" d="M2238 0v1106h385v-1106h-385zM2623 1270h-385v313h385v-313zM1937 612h-1421v-612h-385v795q0 180 53.5 326.5t154.5 249t247.5 157.5t335.5 55h1142v-373h-1134q-176 0 -267.5 -62.5t-125.5 -178.5h1400v-357z" />
<glyph unicode="&#xfb02;" horiz-adv-x="4161" d="M2623 1583v-1208h1448v-375h-1833v1583h385zM1937 612h-1421v-612h-385v795q0 180 53.5 326.5t154.5 249t247.5 157.5t335.5 55h1142v-373h-1134q-176 0 -267.5 -62.5t-125.5 -178.5h1400v-357z" />
<glyph unicode="&#xfb03;" horiz-adv-x="4868" d="M4329 0v1106h385v-1106h-385zM4714 1270h-385v313h385v-313zM4028 612h-1421v-612h-385v795q0 180 53.5 326.5t154.5 249t247.5 157.5t335.5 55h1142v-373h-1134q-176 0 -267.5 -62.5t-125.5 -178.5h1400v-357zM1937 612h-1421v-612h-385v795q0 180 53.5 326.5t154.5 249 t247.5 157.5t335.5 55h1142v-373h-1134q-176 0 -267.5 -62.5t-125.5 -178.5h1400v-357z" />
<glyph unicode="&#xfb04;" horiz-adv-x="6252" d="M4714 1583v-1208h1448v-375h-1833v1583h385zM4028 612h-1421v-612h-385v795q0 180 53.5 326.5t154.5 249t247.5 157.5t335.5 55h1142v-373h-1134q-176 0 -267.5 -62.5t-125.5 -178.5h1400v-357zM1937 612h-1421v-612h-385v795q0 180 53.5 326.5t154.5 249t247.5 157.5 t335.5 55h1142v-373h-1134q-176 0 -267.5 -62.5t-125.5 -178.5h1400v-357z" />
</font>
</defs>
</svg>
